<svg xmlns="http://www.w3.org/2000/svg" xmlns:xlink="http://www.w3.org/1999/xlink" width="500" zoomAndPan="magnify" viewBox="0 0 375 374.999991" height="500" preserveAspectRatio="xMidYMid meet" version="1.0"><defs><clipPath id="id1"><path d="M 0 0 L 374.851562 0 L 374.851562 375 L 0 375 Z M 0 0 " clip-rule="nonzero"/></clipPath></defs><g clip-path="url(#id1)"><path fill="#000000" d="M 186.976562 375.300781 C 290.457031 375.300781 374.851562 290.90625 374.851562 187.425781 C 374.851562 83.949219 290.457031 -0.449219 186.976562 -0.449219 C 83.5 -0.449219 -0.898438 83.949219 -0.898438 187.425781 C -0.898438 290.90625 83.5 375.300781 186.976562 375.300781 " fill-opacity="1" fill-rule="evenodd"/></g><path fill="#fffffe" d="M 186.976562 76.332031 C 217.617188 76.332031 245.367188 88.769531 265.460938 108.882812 C 285.542969 128.988281 297.96875 156.757812 297.96875 187.425781 C 297.96875 218.09375 285.542969 245.863281 265.460938 265.972656 C 245.367188 286.082031 217.617188 298.523438 186.976562 298.523438 C 156.339844 298.523438 128.589844 286.082031 108.496094 265.972656 C 88.410156 245.863281 75.988281 218.09375 75.988281 187.425781 C 75.988281 156.757812 88.410156 128.988281 108.496094 108.882812 C 128.589844 88.769531 156.339844 76.332031 186.976562 76.332031 Z M 260.554688 113.761719 C 241.734375 94.921875 215.71875 83.269531 186.976562 83.269531 C 158.238281 83.269531 132.222656 94.921875 113.402344 113.761719 C 94.570312 132.609375 82.921875 158.65625 82.921875 187.425781 C 82.921875 216.199219 94.570312 242.246094 113.402344 261.09375 C 132.222656 279.929688 158.238281 291.585938 186.976562 291.585938 C 215.71875 291.585938 241.734375 279.929688 260.554688 261.09375 C 279.386719 242.246094 291.03125 216.199219 291.03125 187.425781 C 291.03125 158.65625 279.386719 132.609375 260.554688 113.761719 " fill-opacity="1" fill-rule="nonzero"/><path fill="#fffffe" d="M 272.769531 257.890625 C 262.425781 270.492188 249.371094 280.777344 234.496094 287.84375 C 220.082031 294.691406 203.972656 298.523438 186.976562 298.523438 C 169.984375 298.523438 153.875 294.691406 139.457031 287.84375 C 124.496094 280.734375 111.371094 270.367188 101 257.664062 L 100.988281 257.667969 C 99.78125 256.1875 100 254 101.484375 252.789062 C 101.851562 252.488281 102.265625 252.273438 102.695312 252.148438 C 115.902344 246.777344 129.660156 242.636719 143.835938 239.855469 C 157.824219 237.113281 172.246094 235.679688 186.976562 235.679688 C 201.710938 235.679688 216.132812 237.113281 230.121094 239.855469 C 244.410156 242.65625 258.277344 246.84375 271.578125 252.277344 L 270.277344 255.476562 L 271.589844 252.265625 C 273.363281 252.988281 274.214844 255.015625 273.488281 256.789062 C 273.316406 257.210938 273.070312 257.582031 272.769531 257.890625 Z M 231.542969 281.582031 C 244.128906 275.601562 255.320312 267.171875 264.507812 256.90625 C 253.046875 252.519531 241.113281 249.070312 228.789062 246.65625 C 215.257812 244.003906 201.28125 242.613281 186.976562 242.613281 C 172.675781 242.613281 158.699219 244.003906 145.164062 246.65625 C 132.84375 249.070312 120.910156 252.519531 109.445312 256.90625 C 118.636719 267.171875 129.828125 275.601562 142.414062 281.582031 C 155.914062 287.996094 171.019531 291.585938 186.976562 291.585938 C 202.933594 291.585938 218.042969 287.996094 231.542969 281.582031 " fill-opacity="1" fill-rule="nonzero"/><path fill="#fffffe" d="M 264.507812 117.945312 C 255.320312 107.683594 244.128906 99.25 231.542969 93.269531 C 218.042969 86.855469 202.933594 83.269531 186.976562 83.269531 C 171.019531 83.269531 155.914062 86.855469 142.414062 93.269531 C 129.828125 99.25 118.636719 107.683594 109.445312 117.945312 C 120.910156 122.335938 132.84375 125.78125 145.164062 128.199219 C 158.699219 130.851562 172.675781 132.238281 186.976562 132.238281 C 201.28125 132.238281 215.257812 130.851562 228.789062 128.199219 C 241.113281 125.78125 253.046875 122.335938 264.507812 117.945312 Z M 234.496094 87.011719 C 249.371094 94.078125 262.425781 104.359375 272.769531 116.960938 C 273.070312 117.273438 273.316406 117.644531 273.488281 118.066406 C 274.214844 119.839844 273.363281 121.863281 271.589844 122.589844 L 270.277344 119.378906 L 271.578125 122.578125 C 258.277344 128.011719 244.410156 132.195312 230.121094 135 C 216.132812 137.742188 201.710938 139.175781 186.976562 139.175781 C 172.246094 139.175781 157.824219 137.742188 143.835938 135 C 129.660156 132.21875 115.902344 128.074219 102.695312 122.707031 C 102.265625 122.578125 101.851562 122.367188 101.484375 122.0625 C 100 120.855469 99.78125 118.667969 100.988281 117.183594 L 101 117.191406 C 111.371094 104.484375 124.496094 94.121094 139.457031 87.011719 C 153.875 80.164062 169.984375 76.332031 186.976562 76.332031 C 203.972656 76.332031 220.082031 80.164062 234.496094 87.011719 " fill-opacity="1" fill-rule="nonzero"/><path fill="#fffffe" d="M 186.976562 76.332031 C 204.011719 76.332031 219.246094 89.089844 230.101562 109.710938 C 240.605469 129.664062 247.101562 157.148438 247.101562 187.425781 C 247.101562 217.707031 240.605469 245.191406 230.101562 265.144531 C 219.246094 285.765625 204.011719 298.523438 186.976562 298.523438 C 169.945312 298.523438 154.710938 285.765625 143.855469 265.144531 C 133.351562 245.191406 126.851562 217.707031 126.851562 187.425781 C 126.851562 157.148438 133.351562 129.664062 143.855469 109.710938 C 154.710938 89.089844 169.945312 76.332031 186.976562 76.332031 Z M 223.976562 112.933594 C 214.328125 94.605469 201.230469 83.269531 186.976562 83.269531 C 172.722656 83.269531 159.625 94.605469 149.976562 112.933594 C 139.976562 131.9375 133.792969 158.265625 133.792969 187.425781 C 133.792969 216.585938 139.976562 242.917969 149.976562 261.917969 C 159.625 280.25 172.722656 291.585938 186.976562 291.585938 C 201.230469 291.585938 214.328125 280.25 223.976562 261.917969 C 233.976562 242.917969 240.164062 216.585938 240.164062 187.425781 C 240.164062 158.265625 233.976562 131.9375 223.976562 112.933594 " fill-opacity="1" fill-rule="nonzero"/><path fill="#fffffe" d="M 79.453125 183.960938 C 77.539062 183.960938 75.988281 185.511719 75.988281 187.425781 C 75.988281 189.34375 77.539062 190.894531 79.453125 190.894531 L 294.5 190.894531 C 296.417969 190.894531 297.96875 189.34375 297.96875 187.425781 C 297.96875 185.511719 296.417969 183.960938 294.5 183.960938 L 79.453125 183.960938 " fill-opacity="1" fill-rule="nonzero"/></svg>